<?xml version="1.0" encoding="UTF-8"?>
<svg width="146px" height="13px" viewBox="0 0 146 13" version="1.1" xmlns="http://www.w3.org/2000/svg" xmlns:xlink="http://www.w3.org/1999/xlink">
    <!-- Generator: Sketch 59 (86127) - https://sketch.com -->
    <title>CloudLinuxNetwork</title>
    <desc>Created with Sketch.</desc>
    <g id="Customer" stroke="none" stroke-width="1" fill="none" fill-rule="evenodd">
        <g id="CLN-Backup" transform="translate(-28.000000, -25.000000)" fill="#000000" fill-rule="nonzero">
            <path d="M33.7128906,37.2636719 C36.1518555,37.2636719 37.9389648,35.8061523 38.1879883,33.6455078 L36.3276367,33.6455078 C36.0712891,34.8320312 35.0532227,35.5791016 33.7128906,35.5791016 C31.9111328,35.5791016 30.7905273,34.0996094 30.7905273,31.7119141 C30.7905273,29.331543 31.9111328,27.8520508 33.7055664,27.8520508 C35.0385742,27.8520508 36.0566406,28.6723633 36.3203125,29.9394531 L38.1806641,29.9394531 C37.9609375,27.7348633 36.1079102,26.1674805 33.7055664,26.1674805 C30.7099609,26.1674805 28.8569336,28.2841797 28.8569336,31.7192383 C28.8569336,35.1396484 30.7172852,37.2636719 33.7128906,37.2636719 Z M40.1655273,37 L41.9819336,37 L41.9819336,25.8891602 L40.1655273,25.8891602 L40.1655273,37 Z M47.7314453,35.6376953 C46.4643555,35.6376953 45.7392578,34.6708984 45.7392578,32.9936523 C45.7392578,31.3237305 46.4643555,30.3496094 47.7314453,30.3496094 C48.9912109,30.3496094 49.7163086,31.3237305 49.7163086,32.9936523 C49.7163086,34.6708984 48.9985352,35.6376953 47.7314453,35.6376953 Z M47.7314453,37.1611328 C50.1264648,37.1611328 51.5839844,35.59375 51.5839844,32.9936523 C51.5839844,30.4008789 50.1191406,28.8261719 47.7314453,28.8261719 C45.3510742,28.8261719 43.8789062,30.4082031 43.8789062,32.9936523 C43.8789062,35.59375 45.3291016,37.1611328 47.7314453,37.1611328 Z M60.5561523,28.9873047 L58.7397461,28.9873047 L58.7397461,33.652832 C58.7397461,34.8393555 58,35.5644531 56.828125,35.5644531 C55.7368164,35.5644531 55.1582031,34.9711914 55.1582031,33.7407227 L55.1582031,28.9873047 L53.3417969,28.9873047 L53.3417969,34.1728516 C53.3417969,36.0698242 54.4331055,37.1611328 56.1982422,37.1611328 C57.3847656,37.1611328 58.2929688,36.6411133 58.6811523,35.7255859 L58.8056641,35.7255859 L58.8056641,37 L60.5561523,37 L60.5561523,28.9873047 Z M65.6831055,37.1318359 C66.7963867,37.1318359 67.7192383,36.6118164 68.1733398,35.7329102 L68.2978516,35.7329102 L68.2978516,37 L70.0556641,37 L70.0556641,25.8891602 L68.2392578,25.8891602 L68.2392578,30.2617188 L68.1147461,30.2617188 C67.6899414,29.3828125 66.7817383,28.8554688 65.6831055,28.8554688 C63.6616211,28.8554688 62.387207,30.4521484 62.387207,32.9863281 C62.387207,35.5351562 63.6542969,37.1318359 65.6831055,37.1318359 Z M66.2470703,30.4008789 C67.4921875,30.4008789 68.2612305,31.3969727 68.2612305,32.9936523 C68.2612305,34.6049805 67.4995117,35.5864258 66.2470703,35.5864258 C65.0019531,35.5864258 64.2475586,34.6123047 64.2475586,32.9936523 C64.2475586,31.3823242 65.0092773,30.4008789 66.2470703,30.4008789 Z M79.2768555,35.3447266 L74.4282227,35.3447266 L74.4282227,26.4311523 L72.5385742,26.4311523 L72.5385742,37 L79.2768555,37 L79.2768555,35.3447266 Z M81.1445312,37 L82.9536133,37 L82.9536133,28.9873047 L81.1445312,28.9873047 L81.1445312,37 Z M82.0454102,27.6835938 C82.7119141,27.6835938 83.1660156,27.2587891 83.1660156,26.6801758 C83.1660156,26.1015625 82.7119141,25.6767578 82.0454102,25.6767578 C81.3862305,25.6767578 80.9248047,26.1015625 80.9248047,26.6801758 C80.9248047,27.2587891 81.3862305,27.6835938 82.0454102,27.6835938 Z M85.2021484,37 L87.0185547,37 L87.0185547,32.3344727 C87.0185547,31.1552734 87.7509766,30.4082031 88.9228516,30.4082031 C90.0214844,30.4082031 90.578125,31.0234375 90.578125,32.246582 L90.578125,37 L92.387207,37 L92.387207,31.8144531 C92.387207,29.902832 91.3837891,28.8261719 89.5966797,28.8261719 C88.3955078,28.8261719 87.4580078,29.3754883 87.0771484,30.269043 L86.9526367,30.269043 L86.9526367,28.9873047 L85.2021484,28.9873047 L85.2021484,37 Z M101.681641,28.9873047 L99.8652344,28.9873047 L99.8652344,33.652832 C99.8652344,34.8393555 99.1254883,35.5644531 97.9536133,35.5644531 C96.8623047,35.5644531 96.2836914,34.9711914 96.2836914,33.7407227 L96.2836914,28.9873047 L94.4672852,28.9873047 L94.4672852,34.1728516 C94.4672852,36.0698242 95.5585938,37.1611328 97.3237305,37.1611328 C98.5102539,37.1611328 99.418457,36.6411133 99.8066406,35.7255859 L99.9311523,35.7255859 L99.9311523,37 L101.681641,37 L101.681641,28.9873047 Z M107.02832,34.2387695 L108.668945,37 L110.719727,37 L108.10498,32.949707 L110.69043,28.9873047 L108.690918,28.9873047 L107.108887,31.7412109 L106.984375,31.7412109 L105.387695,28.9873047 L103.285645,28.9873047 L105.900391,33.0229492 L103.307617,37 L105.263184,37 L106.903809,34.2387695 L107.02832,34.2387695 Z M117.86084,37 L117.86084,28.8041992 L117.978027,28.8041992 L123.712891,37 L124.994629,37 L124.994629,26.4311523 L123.690918,26.4311523 L123.690918,34.65625 L123.57373,34.65625 L117.838867,26.4311523 L116.557129,26.4311523 L116.557129,37 L117.86084,37 Z M130.678223,30.0786133 C131.930664,30.0786133 132.765625,31.0014648 132.794922,32.4003906 L128.444336,32.4003906 C128.539551,31.0014648 129.418457,30.0786133 130.678223,30.0786133 Z M132.758301,34.956543 C132.428711,35.6523438 131.740234,36.0258789 130.722168,36.0258789 C129.381836,36.0258789 128.510254,35.0371094 128.444336,33.4770508 L128.444336,33.418457 L134.120605,33.418457 L134.120605,32.9350586 C134.120605,30.4814453 132.824219,28.965332 130.692871,28.965332 C128.524902,28.965332 127.133301,30.5766602 127.133301,33.0595703 C127.133301,35.5571289 128.50293,37.1391602 130.692871,37.1391602 C132.421387,37.1391602 133.637207,36.3115234 134.018066,34.956543 L132.758301,34.956543 Z M136.625488,27.1342773 L136.625488,29.1044922 L135.299805,29.1044922 L135.299805,30.1591797 L136.625488,30.1591797 L136.625488,34.9492188 C136.625488,36.4580078 137.277344,37.0585938 138.90332,37.0585938 C139.152344,37.0585938 139.379395,37.0292969 139.628418,36.9853516 L139.628418,35.9233398 C139.394043,35.9453125 139.28418,35.9526367 139.057129,35.9526367 C138.236816,35.9526367 137.885254,35.5571289 137.885254,34.6269531 L137.885254,30.1591797 L139.716309,30.1591797 L139.716309,29.1044922 L137.885254,29.1044922 L137.885254,27.1342773 L136.625488,27.1342773 Z M151.479004,29.1044922 L150.211914,29.1044922 L148.65918,35.4179688 L148.541992,35.4179688 L146.776855,29.1044922 L145.568359,29.1044922 L143.803223,35.4179688 L143.686035,35.4179688 L142.133301,29.1044922 L140.858887,29.1044922 L143.070801,37 L144.345215,37 L146.103027,30.8916016 L146.220215,30.8916016 L147.985352,37 L149.26709,37 L151.479004,29.1044922 Z M156.115234,36.0039062 C154.621094,36.0039062 153.778809,34.9199219 153.778809,33.0522461 C153.778809,31.1772461 154.621094,30.1005859 156.115234,30.1005859 C157.609375,30.1005859 158.45166,31.1772461 158.45166,33.0522461 C158.45166,34.9199219 157.609375,36.0039062 156.115234,36.0039062 Z M156.115234,37.1391602 C158.36377,37.1391602 159.755371,35.5864258 159.755371,33.0522461 C159.755371,30.5107422 158.36377,28.965332 156.115234,28.965332 C153.866699,28.965332 152.475098,30.5107422 152.475098,33.0522461 C152.475098,35.5864258 153.866699,37.1391602 156.115234,37.1391602 Z M161.73291,37 L162.992676,37 L162.992676,32.1074219 C162.992676,30.9941406 163.864258,30.1884766 165.06543,30.1884766 L165.281952,30.1958008 C165.519531,30.2095337 165.794189,30.2397461 165.871094,30.2617188 L165.871094,29.0019531 C165.709961,28.9799805 165.446289,28.965332 165.241211,28.965332 C164.193848,28.965332 163.285645,29.5073242 163.05127,30.2763672 L162.934082,30.2763672 L162.934082,29.1044922 L161.73291,29.1044922 L161.73291,37 Z M168.786133,32.5541992 L172.213867,29.1044922 L173.759277,29.1044922 L170.36084,32.4882812 L173.986328,37 L172.382324,37 L169.42334,33.3012695 L168.668945,34.0043945 L168.668945,37 L167.40918,37 L167.40918,25.9697266 L168.668945,25.9697266 L168.668945,32.5541992 L168.786133,32.5541992 Z" id="CloudLinuxNetwork"></path>
        </g>
    </g>
</svg>